<svg xmlns="http://www.w3.org/2000/svg" xmlns:xlink="http://www.w3.org/1999/xlink" xmlns:rdf="http://www.w3.org/1999/02/22-rdf-syntax-ns#" xmlns:cc="http://creativecommons.org/ns#" xmlns:dc="http://purl.org/dc/elements/1.1/">
    <defs>
        <style>
    .sprite-symbol-usage {display: none;}
    .sprite-symbol-usage:target {display: inline;}
  </style>
        <symbol viewBox="0 0 48 48" id="cane-user">
            <path d="m36.696 18.666c-1.719 0.339-4.163 0.904-5.314-0.815-0.659-0.983-1.11-2.135-1.49-3.325 0.832-1.374 0.84-3.325 0.069-4.64-1.307-2.2318-3.798-2.5088-5.976-1.5549-5.592 2.4469-8.82 9.2069-10.117 14.934-0.333 0.659-0.428 1.429-0.145 2.172 0.114 0.675 0.385 1.277 0.765 1.788-0.795 5.377-2.287 11.102-5.2815 15.628-2.0181 3.047 2.8765 5.872 4.8785 2.852 2.706-4.088 4.267-8.947 5.259-13.833 0.446 0.608 0.856 1.237 1.207 1.901 1.298 2.462-1.616 5.484-3.033 7.139-2.356 2.752 1.621 6.766 3.993 3.995 2.693-3.146 5.707-6.981 4.825-11.408-0.544-2.729-2.274-5.075-4.223-7.207 0.027-0.095 0.055-0.188 0.077-0.29 0.656-3.1 1.845-6.731 4.272-8.884 0.511 1.372 1.148 2.668 2.059 3.739 2.071 2.432 5.209 2.441 8.123 1.975l0.037 24.614 1.025 0.054-0.036-24.85c0.041-0.007 0.082-0.015 0.12-0.022 2.597-0.512 1.494-4.472-1.094-3.962" />
            <ellipse rx="4.2882" ry="4.2882" cy="4.7879" cx="31.927" />
        </symbol>
        <symbol viewBox="0 0 24 24" id="chevron-down">
            <path d="M7.41,8.58L12,13.17L16.59,8.58L18,10L12,16L6,10L7.41,8.58Z" />
        </symbol>
        <symbol viewBox="0 0 24 24" id="close">
            <path d="M19,6.41L17.59,5L12,10.59L6.41,5L5,6.41L10.59,12L5,17.59L6.41,19L12,13.41L17.59,19L19,17.59L13.41,12L19,6.41Z" />
        </symbol>
        <symbol viewBox="0 0 24 24" id="crosshairs-gps">
            <path d="M12,8A4,4 0 0,1 16,12A4,4 0 0,1 12,16A4,4 0 0,1 8,12A4,4 0 0,1 12,8M3.05,13H1V11H3.05C3.5,6.83 6.83,3.5 11,3.05V1H13V3.05C17.17,3.5 20.5,6.83 20.95,11H23V13H20.95C20.5,17.17 17.17,20.5 13,20.95V23H11V20.95C6.83,20.5 3.5,17.17 3.05,13M12,5A7,7 0 0,0 5,12A7,7 0 0,0 12,19A7,7 0 0,0 19,12A7,7 0 0,0 12,5Z" />
        </symbol>
        <symbol viewBox="0 0 24 24" id="directions">
            <path d="M14,14.5V12H10V15H8V11A1,1 0 0,1 9,10H14V7.5L17.5,11M21.71,11.29L12.71,2.29H12.7C12.31,1.9 11.68,1.9 11.29,2.29L2.29,11.29C1.9,11.68 1.9,12.32 2.29,12.71L11.29,21.71C11.68,22.09 12.31,22.1 12.71,21.71L21.71,12.71C22.1,12.32 22.1,11.68 21.71,11.29Z" />
        </symbol>
        <symbol viewBox="0 0 24 24" id="email">
            <path d="M20,8L12,13L4,8V6L12,11L20,6M20,4H4C2.89,4 2,4.89 2,6V18A2,2 0 0,0 4,20H20A2,2 0 0,0 22,18V6C22,4.89 21.1,4 20,4Z" />
        </symbol>
        <symbol viewBox="0 0 24 24" aria-labelledby="eyeIconTitle" stroke="#000000" stroke-width="1" stroke-linecap="square" stroke-linejoin="miter" fill="none" id="eye">
            <title id="eye_eyeIconTitle">Visible (eye)</title>
            <path d="M22 12C22 12 19 18 12 18C5 18 2 12 2 12C2 12 5 6 12 6C19 6 22 12 22 12Z" />
            <circle cx="12" cy="12" r="3" />
        </symbol>
        <symbol viewBox="0 0 24 24" aria-labelledby="eyeCrossedIconTitle" stroke="#000000" stroke-width="1" stroke-linecap="square" stroke-linejoin="miter" fill="none" id="eye-crossed">
            <title id="eye-crossed_eyeCrossedIconTitle">Hidden (crossed eye)</title>
            <path d="M22 12C22 12 19 18 12 18C5 18 2 12 2 12C2 12 5 6 12 6C19 6 22 12 22 12Z" />
            <circle cx="12" cy="12" r="3" />
            <path d="M3 21L20 4" />
        </symbol>
        <symbol viewBox="0 0 24 24" id="heart">
            <path d="M12,21.35L10.55,20.03C5.4,15.36 2,12.27 2,8.5C2,5.41 4.42,3 7.5,3C9.24,3 10.91,3.81 12,5.08C13.09,3.81 14.76,3 16.5,3C19.58,3 22,5.41 22,8.5C22,12.27 18.6,15.36 13.45,20.03L12,21.35Z" />
        </symbol>
        <symbol viewBox="0 0 24 24" id="information">
            <path d="M13,9H11V7H13M13,17H11V11H13M12,2A10,10 0 0,0 2,12A10,10 0 0,0 12,22A10,10 0 0,0 22,12A10,10 0 0,0 12,2Z" />
        </symbol>
        <symbol viewBox="0 0 24 24" id="map-legend">
            <path d="M9,3L3.36,4.9C3.15,4.97 3,5.15 3,5.38V20.5A0.5,0.5 0 0,0 3.5,21L3.66,20.97L9,18.9L15,21L20.64,19.1C20.85,19.03 21,18.85 21,18.62V3.5A0.5,0.5 0 0,0 20.5,3L20.34,3.03L15,5.1L9,3M8,5.45V17.15L5,18.31V6.46L8,5.45M10,5.47L14,6.87V18.53L10,17.13V5.47M19,5.7V17.54L16,18.55V6.86L19,5.7M7.46,6.3L5.57,6.97V9.12L7.46,8.45V6.3M7.46,9.05L5.57,9.72V11.87L7.46,11.2V9.05M7.46,11.8L5.57,12.47V14.62L7.46,13.95V11.8M7.46,14.55L5.57,15.22V17.37L7.46,16.7V14.55Z" />
        </symbol>
        <symbol viewBox="0 0 32 48" id="map-pin">
            <path d="m11.056 33.48c-2.0412-3.697-4.3461-7.255-6.2184-11.042-2.1914-5.24 0.0618-11.841 4.9893-14.662 2.2561-1.2683 4.9391-2.0657 7.5361-1.6771 4.5908 0.55599 8.7155 3.9091 10.101 8.3368 1.1926 3.6986 0.32928 7.8359-1.8711 10.984-3.194 5.528-6.333 11.088-9.589 16.58-1.688-2.817-3.305-5.677-4.948-8.52z" />
        </symbol>
        <symbol viewBox="0 0 24 24" id="menu">
            <path d="M3,6H21V8H3V6M3,11H21V13H3V11M3,16H21V18H3V16Z" />
        </symbol>
        <symbol viewBox="0 0 24 24" id="minus">
            <path d="M19,13H5V11H19V13Z" />
        </symbol>
        <symbol viewBox="0 0 24 24" id="pencil">
            <path d="M20.71,7.04C21.1,6.65 21.1,6 20.71,5.63L18.37,3.29C18,2.9 17.35,2.9 16.96,3.29L15.12,5.12L18.87,8.87M3,17.25V21H6.75L17.81,9.93L14.06,6.18L3,17.25Z" />
        </symbol>
        <symbol viewBox="0 0 24 24" id="person-pin">
            <path d="M12 2c-4.97 0-9 4.03-9 9 0 4.17 2.84 7.67 6.69 8.69L12 22l2.31-2.31C18.16 18.67 21 15.17 21 11c0-4.97-4.03-9-9-9zm0 2c1.66 0 3 1.34 3 3s-1.34 3-3 3-3-1.34-3-3 1.34-3 3-3zm0 14.3c-2.5 0-4.71-1.28-6-3.22.03-1.99 4-3.08 6-3.08 1.99 0 5.97 1.09 6 3.08-1.29 1.94-3.5 3.22-6 3.22z" />
            <path fill="none" d="M0 0h24v24H0z" />
        </symbol>
        <symbol viewBox="0 0 24 24" id="plus">
            <path d="M19,13H13V19H11V13H5V11H11V5H13V11H19V13Z" />
        </symbol>
        <symbol viewBox="0 0 24 24" id="school">
            <path d="M12,3L1,9L12,15L21,10.09V17H23V9M5,13.18V17.18L12,21L19,17.18V13.18L12,17L5,13.18Z" />
        </symbol>
        <symbol viewBox="0 0 24 24" id="swap-vert">
            <path d="M9,3L5,7H8V14H10V7H13M16,17V10H14V17H11L15,21L19,17H16Z" />
        </symbol>
        <symbol viewBox="0 0 24 24" id="twitter">
            <path d="M22.46,6C21.69,6.35 20.86,6.58 20,6.69C20.88,6.16 21.56,5.32 21.88,4.31C21.05,4.81 20.13,5.16 19.16,5.36C18.37,4.5 17.26,4 16,4C13.65,4 11.73,5.92 11.73,8.29C11.73,8.63 11.77,8.96 11.84,9.27C8.28,9.09 5.11,7.38 3,4.79C2.63,5.42 2.42,6.16 2.42,6.94C2.42,8.43 3.17,9.75 4.33,10.5C3.62,10.5 2.96,10.3 2.38,10C2.38,10 2.38,10 2.38,10.03C2.38,12.11 3.86,13.85 5.82,14.24C5.46,14.34 5.08,14.39 4.69,14.39C4.42,14.39 4.15,14.36 3.89,14.31C4.43,16 6,17.26 7.89,17.29C6.43,18.45 4.58,19.13 2.56,19.13C2.22,19.13 1.88,19.11 1.54,19.07C3.44,20.29 5.7,21 8.12,21C16,21 20.33,14.46 20.33,8.79C20.33,8.6 20.33,8.42 20.32,8.23C21.16,7.63 21.88,6.87 22.46,6Z" />
        </symbol>
        <symbol viewBox="0 0 48 48" id="wheelchair">
            <g>
                <path d="m41.19 21.856c-0.552-0.565-1.322-0.864-2.11-0.821l-9.529 0.53s5.244-5.972 5.244-5.972c0.747-0.851 0.961-1.985 0.672-2.998-0.152-0.695-0.573-1.327-1.219-1.73-0.02-0.014-12.535-7.2845-12.535-7.2845-1.022-0.5937-2.31-0.4629-3.192 0.3237l-6.113 5.4534c-1.127 1.0044-1.225 2.7324-0.221 3.8584 1.005 1.126 2.733 1.225 3.859 0.22l4.635-4.134 3.832 2.225s-6.764 7.703-6.764 7.703c-2.804 0.457-5.328 1.749-7.308 3.613l3.532 3.531c1.596-1.451 3.716-2.337 6.039-2.337 4.955 0 8.986 4.031 8.986 8.986 0 2.323-0.886 4.443-2.337 6.039 0 0 3.531 3.532 3.531 3.532 2.353-2.501 3.797-5.866 3.797-9.571 0-2.208-0.512-4.295-1.424-6.151l3.689-0.206-0.897 11.006c-0.123 1.505 0.997 2.824 2.502 2.946 0.075 0.007 0.15 0.009 0.225 0.009 1.408 0 2.604-1.082 2.721-2.511l1.151-14.13c0.064-0.787-0.215-1.564-0.766-2.13" />
                <path d="m36.127 10.149c2.527 0 4.575-2.0479 4.575-4.5745 0-2.5265-2.048-4.5748-4.575-4.5748s-4.575 2.0483-4.575 4.5748c0 2.5266 2.048 4.5745 4.575 4.5745" />
                <path d="m20.012 42.009c-4.955 0-8.986-4.031-8.986-8.986 0-1.867 0.573-3.603 1.551-5.041 0 0-3.5698-3.57-3.5698-3.57-1.8602 2.374-2.9722 5.362-2.9722 8.611 0 7.72 6.257 13.977 13.977 13.977 3.249 0 6.237-1.112 8.611-2.972 0 0-3.569-3.571-3.569-3.571-1.439 0.979-3.175 1.552-5.042 1.552" />
            </g>
        </symbol>
        <symbol viewBox="0 0 48 48" id="wheelchair-powered">
            <path d="m24.211 11.102c-0.70415 0.03889-1.2841 0.15605-1.6152 0.35352-1.3244 0.78986-1.7587 1.947-1.7871 3.0977-0.02843 1.1507-0.02539 7.3945-0.02539 7.3945s-0.0052 4.4837 0.19922 4.9414c1.6948 3.7958 7.8682 2.5045 14.311 1.8242l1.5684-0.29492 1.4668 10.5c0.11666 1.5048 0.99702 3.0638 2.502 2.9473 0.07534-0.0059 0.15108 0.01958 0.22461 0.0078 1.3909-0.22267 2.8316-1.0807 2.7207-2.5098l-1.2109-13.625c0.06429-0.78738-0.21451-1.5633-0.76562-2.1289h-0.002c-0.5519-0.56541-1.3221-0.86494-2.1094-0.82227l-8.4688 0.61914-0.02344-2.1992 6.3828-0.50976a2.5002 2.5002 0 0 0 -0.22461 -4.9941 2.5002 2.5002 0 0 0 -0.17383 0.0098l-5.805 0.465c0.08626-1.0272 0.02035-2.4013-0.76758-3.3477-1.0456-1.2558-4.284-1.8452-6.3965-1.7285z" />
            <path d="m27.867 10.21c2.5265 0 4.5743-2.0481 4.5743-4.5747 0-2.5265-2.0479-4.5748-4.5743-4.5748-2.5267 0-4.5748 2.0483-4.5748 4.5748 0 2.5266 2.0479 4.5747 4.5748 4.5747" />
            <path d="m8.9118 8.088 8 8-2 2 4 4-2 2 4 8-12-8 2-2-6-4 2-2-6-4z" />
            <path d="m29.442 30.601c-1.9106 0-3.6718 0.6668-5.0762 1.7695l2.8574 2.8574c0.64537-0.39124 1.3991-0.62696 2.2188-0.62696 2.376 0 4.2598 1.8838 4.2598 4.2598 0 0.82014-0.2353 1.5735-0.62696 2.2188l2.8574 2.8574c1.1027-1.404 1.7695-3.1656 1.7695-5.0762 0-4.5378-3.722-8.2598-8.2598-8.2598z" />
            <path d="m22.951 33.785c-1.1029 1.4045-1.7695 3.1655-1.7695 5.0762 0 0.31408 0.02194 0.62245 0.05664 0.92774h-0.99219c-0.80496-1.8769-2.6751-3.2051-4.834-3.2051-1.0833 0.000001-2.0955 0.33426-2.9356 0.9043l2.2188 2.2188c0.22578-0.07399 0.46323-0.12305 0.7168-0.12305 1.2635 0 2.2559 0.99045 2.2559 2.2539 0 0.25365-0.05084 0.49084-0.125 0.7168l2.2188 2.2188c0.39923-0.5877 0.67583-1.263 0.81055-1.9844h1.6133c1.4046 2.5722 4.1371 4.3301 7.2559 4.3301 1.9102 0 3.6719-0.66373 5.0762-1.7656l-2.8594-2.8613c-0.64506 0.39039-1.3978 0.62696-2.2168 0.62696-2.376 0-4.2598-1.8818-4.2598-4.2578 0-0.81966 0.23572-1.5734 0.62696-2.2188l-2.8574-2.8574z" />
            <path d="m11.063 38.902c-0.57132 0.84017-0.90625 1.8513-0.90625 2.9356 0 2.8848 2.3711 5.2559 5.2559 5.2559 1.0843 0 2.095-0.33494 2.9356-0.90625l-2.217-2.216c-0.2264 0.07449-0.46452 0.12305-0.71875 0.12305-1.2635 0-2.2539-0.99241-2.2539-2.2559 0-0.25357 0.04906-0.49102 0.12305-0.7168l-2.2188-2.2188z" />
        </symbol>
    </defs>
    <use id="cane-user-usage" xlink:href="#cane-user" class="sprite-symbol-usage" />
    <use id="chevron-down-usage" xlink:href="#chevron-down" class="sprite-symbol-usage" />
    <use id="close-usage" xlink:href="#close" class="sprite-symbol-usage" />
    <use id="crosshairs-gps-usage" xlink:href="#crosshairs-gps" class="sprite-symbol-usage" />
    <use id="directions-usage" xlink:href="#directions" class="sprite-symbol-usage" />
    <use id="email-usage" xlink:href="#email" class="sprite-symbol-usage" />
    <use id="eye-usage" xlink:href="#eye" class="sprite-symbol-usage" />
    <use id="eye-crossed-usage" xlink:href="#eye-crossed" class="sprite-symbol-usage" />
    <use id="heart-usage" xlink:href="#heart" class="sprite-symbol-usage" />
    <use id="information-usage" xlink:href="#information" class="sprite-symbol-usage" />
    <use id="map-legend-usage" xlink:href="#map-legend" class="sprite-symbol-usage" />
    <use id="map-pin-usage" xlink:href="#map-pin" class="sprite-symbol-usage" />
    <use id="menu-usage" xlink:href="#menu" class="sprite-symbol-usage" />
    <use id="minus-usage" xlink:href="#minus" class="sprite-symbol-usage" />
    <use id="pencil-usage" xlink:href="#pencil" class="sprite-symbol-usage" />
    <use id="person-pin-usage" xlink:href="#person-pin" class="sprite-symbol-usage" />
    <use id="plus-usage" xlink:href="#plus" class="sprite-symbol-usage" />
    <use id="school-usage" xlink:href="#school" class="sprite-symbol-usage" />
    <use id="swap-vert-usage" xlink:href="#swap-vert" class="sprite-symbol-usage" />
    <use id="twitter-usage" xlink:href="#twitter" class="sprite-symbol-usage" />
    <use id="wheelchair-usage" xlink:href="#wheelchair" class="sprite-symbol-usage" />
    <use id="wheelchair-powered-usage" xlink:href="#wheelchair-powered" class="sprite-symbol-usage" />
</svg>
