<svg xmlns="http://www.w3.org/2000/svg" version="1.1" xmlns:xlink="http://www.w3.org/1999/xlink"
  width="1024" height="1024">
  <svg width="1024" height="1024" viewBox="0 0 256 256" version="1.1" id="SvgjsSvg1011"
    xmlns="http://www.w3.org/2000/svg" xmlns:svg="http://www.w3.org/2000/svg">
    <defs id="SvgjsDefs1010"></defs>
    <g id="SvgjsG1009" transform="matrix(1,0,0,1,-0.25,-0.25)">
      <rect
        style="vector-effect:non-scaling-stroke;fill:#ffffff;fill-opacity:1;stroke:none;stroke-width:0.25;stroke-linejoin:round;stroke-dasharray:none;-inkscape-stroke:hairline"
        id="SvgjsRect1008" width="255.5" height="255.5" x="0.25" y="0.25"></rect>
    </g>
    <g id="SvgjsG1007">
      <path
        d="m 68.240056,106.44801 1.152,-9.216002 h -39.168 l -1.152,9.216002 h 14.688 l -6.72,54.816 h 9.792 l 6.72,-54.816 z m 55.007904,-5.76 c -6.816,-3.360002 -12.384,-4.608002 -18.24,-4.608002 -9.791997,0 -18.335997,2.976 -25.343997,9.792002 -6.144,6.048 -10.56,14.688 -10.56,26.496 0,9.504 2.976,16.608 8.544,22.176 6.336,6.336 13.344,7.968 21.024,7.968 4.511997,0 9.887997,-0.576 17.663997,-4.8 l 1.344,-11.616 c -3.36,2.88 -9.6,7.392 -18.143997,7.392 -6.528,0 -11.424,-2.112 -15.072,-6.048 -3.072,-3.264 -5.568,-8.16 -5.568,-15.072 0,-8.64 3.36,-16.224 8.064,-20.736 4.512,-4.32 10.656,-6.528 17.375997,-6.528 4.224,0 11.52,1.056 17.568,7.104 z m 49.24798,60.576 h 10.368 l -21.984,-67.776002 -40.224,67.776002 h 10.752 l 8.928,-15.456 h 27.36 z m -26.976,-24.672 12.48,-21.696 6.912,21.696 z m 80.256,-30.144 1.152,-9.216002 h -39.168 l -1.152,9.216002 h 14.688 l -6.72,54.816 h 9.792 l 6.72,-54.816 z"
        id="SvgjsPath1006"
        style="font-size:96px;font-family:'Futura PT Medium Italic';-inkscape-font-specification:'Futura PT Medium Italic, ';stroke-width:0.25;stroke-linejoin:round"
        aria-label="TCAT"></path>
    </g>
  </svg>
  <style>@media (prefers-color-scheme: light) { :root { filter: none; } }
    @media (prefers-color-scheme: dark) { :root { filter: invert(100%); } }
</style>
</svg>
